<svg xmlns="http://www.w3.org/2000/svg" viewBox="0 0 512 512">
  <defs>
    <linearGradient id="grad" x1="0%" y1="0%" x2="100%" y2="100%">
      <stop offset="0%" style="stop-color:#22c55e;stop-opacity:1" />
      <stop offset="100%" style="stop-color:#16a34a;stop-opacity:1" />
    </linearGradient>
  </defs>
  <!-- Background -->
  <rect width="512" height="512" rx="80" fill="url(#grad)"/>
  <!-- Shopping cart icon -->
  <g transform="translate(96, 96) scale(1.25)" fill="white">
    <path d="M7 18c-1.1 0-1.99.9-1.99 2S5.9 22 7 22s2-.9 2-2-.9-2-2-2zM1 2v2h2l3.6 7.59-1.35 2.45c-.16.28-.25.61-.25.96 0 1.1.9 2 2 2h12v-2H7.42c-.14 0-.25-.11-.25-.25l.03-.12.9-1.63h7.45c.75 0 1.41-.41 1.75-1.03l3.58-6.49c.08-.14.12-.31.12-.48 0-.55-.45-1-1-1H5.21l-.94-2H1zm16 16c-1.1 0-1.99.9-1.99 2s.89 2 1.99 2 2-.9 2-2-.9-2-2-2z" transform="scale(10) translate(3, 3)"/>
  </g>
  <!-- Leaf accent for fresh/grocery theme -->
  <ellipse cx="390" cy="120" rx="60" ry="30" fill="white" opacity="0.3" transform="rotate(-30 390 120)"/>
  <path d="M360 140 Q400 100 420 130 Q400 120 360 140" fill="white" opacity="0.5"/>
</svg>
