<svg xmlns="http://www.w3.org/2000/svg" viewBox="0 0 512 512">
  <!-- Shopping cart icon for Safari pinned tab (monochrome) -->
  <g fill="#16a34a">
    <path d="M140 360c-22 0-39.8 18-39.8 40s17.8 40 39.8 40c22 0 40-18 40-40s-18-40-40-40zM20 40v40h40l72 151.8-27 49c-3.2 5.6-5 12.2-5 19.2 0 22 18 40 40 40h240v-40H148.4c-2.8 0-5-2.2-5-5l.6-2.4 18-32.6h149c15 0 28.2-8.2 35-20.6l71.6-129.8c1.6-2.8 2.4-6.2 2.4-9.6 0-11-9-20-20-20H104.2l-18.8-40H20zm340 320c-22 0-39.8 18-39.8 40s17.8 40 39.8 40c22 0 40-18 40-40s-18-40-40-40z" transform="translate(36, 16)"/>
  </g>
</svg>
